<mxfile host="app.diagrams.net" agent="Mozilla/5.0 (Windows NT 10.0; Win64; x64; rv:134.0) Gecko/20100101 Firefox/134.0" version="26.0.6">
  <diagram id="prtHgNgQTEPvFCAcTncT" name="Page-1">
    <mxGraphModel dx="1434" dy="764" grid="1" gridSize="10" guides="1" tooltips="1" connect="1" arrows="1" fold="1" page="1" pageScale="1" pageWidth="827" pageHeight="1169" math="0" shadow="0">
      <root>
        <mxCell id="0" />
        <mxCell id="1" parent="0" />
        <mxCell id="dNxyNK7c78bLwvsdeMH5-11" value="Kingswood Rugby Club" style="swimlane;html=1;startSize=20;horizontal=1;containerType=tree;glass=0;" parent="1" vertex="1">
          <mxGeometry y="80" width="1530" height="440" as="geometry" />
        </mxCell>
        <UserObject label="%name%&lt;br&gt;&lt;i style=&quot;color: gray;&quot;&gt;%position%&lt;/i&gt;" name="Ian Starr" position="Chairman" placeholders="1" id="dNxyNK7c78bLwvsdeMH5-12">
          <mxCell style="label;image=https://cdn2.iconfinder.com/data/icons/ios-7-icons/50/user_male4-512.png;whiteSpace=wrap;html=1;rounded=0;glass=0;treeMoving=1;treeFolding=1;" parent="dNxyNK7c78bLwvsdeMH5-11" vertex="1">
            <mxGeometry x="580" y="30" width="180" height="70" as="geometry" />
          </mxCell>
        </UserObject>
        <UserObject label="%name%&lt;br&gt;&lt;i style=&quot;color: gray;&quot;&gt;%position%&lt;/i&gt;" name="Rich Caines" position="President" email="pres@kingswoodrfc.co.uk" placeholders="1" id="LuRqBmNVZjdzien86iA9-1">
          <mxCell style="label;image=https://cdn2.iconfinder.com/data/icons/ios-7-icons/50/user_male4-512.png;whiteSpace=wrap;html=1;rounded=0;glass=0;treeMoving=1;treeFolding=1;" parent="dNxyNK7c78bLwvsdeMH5-11" vertex="1">
            <mxGeometry x="770" y="30" width="180" height="70" as="geometry" />
          </mxCell>
        </UserObject>
        <mxCell id="LuRqBmNVZjdzien86iA9-15" value="" style="edgeStyle=orthogonalEdgeStyle;rounded=0;orthogonalLoop=1;jettySize=auto;html=1;exitX=0.5;exitY=1;exitDx=0;exitDy=0;" parent="dNxyNK7c78bLwvsdeMH5-11" source="dNxyNK7c78bLwvsdeMH5-12" target="LuRqBmNVZjdzien86iA9-16" edge="1">
          <mxGeometry relative="1" as="geometry" />
        </mxCell>
        <UserObject label="%name%&lt;br&gt;&lt;i style=&quot;color: gray;&quot;&gt;%position%&lt;/i&gt;" name="Matt Rich" position="Vice Chairman" email="chair@kingswoodrfc.co.uk" placeholders="1" id="LuRqBmNVZjdzien86iA9-16">
          <mxCell style="label;image=https://cdn2.iconfinder.com/data/icons/ios-7-icons/50/user_male4-512.png;whiteSpace=wrap;html=1;rounded=0;glass=0;treeMoving=1;treeFolding=1;" parent="dNxyNK7c78bLwvsdeMH5-11" vertex="1">
            <mxGeometry x="10" y="140" width="180" height="70" as="geometry" />
          </mxCell>
        </UserObject>
        <mxCell id="LuRqBmNVZjdzien86iA9-17" value="" style="edgeStyle=orthogonalEdgeStyle;rounded=0;orthogonalLoop=1;jettySize=auto;html=1;exitX=0.5;exitY=1;exitDx=0;exitDy=0;" parent="dNxyNK7c78bLwvsdeMH5-11" source="dNxyNK7c78bLwvsdeMH5-12" target="LuRqBmNVZjdzien86iA9-18" edge="1">
          <mxGeometry relative="1" as="geometry" />
        </mxCell>
        <UserObject label="%name%&lt;br&gt;&lt;i style=&quot;color: gray;&quot;&gt;%position%&lt;/i&gt;" name="Fiona Frost" position="Treasurer" email="chair@kingswoodrfc.co.uk" placeholders="1" id="LuRqBmNVZjdzien86iA9-18">
          <mxCell style="label;image=https://cdn2.iconfinder.com/data/icons/ios-7-icons/50/user_female4-256.png;whiteSpace=wrap;html=1;rounded=0;glass=0;treeMoving=1;treeFolding=1;" parent="dNxyNK7c78bLwvsdeMH5-11" vertex="1">
            <mxGeometry x="200" y="140" width="180" height="70" as="geometry" />
          </mxCell>
        </UserObject>
        <mxCell id="LuRqBmNVZjdzien86iA9-19" value="" style="edgeStyle=orthogonalEdgeStyle;rounded=0;orthogonalLoop=1;jettySize=auto;html=1;exitX=0.5;exitY=1;exitDx=0;exitDy=0;" parent="dNxyNK7c78bLwvsdeMH5-11" source="dNxyNK7c78bLwvsdeMH5-12" target="LuRqBmNVZjdzien86iA9-20" edge="1">
          <mxGeometry relative="1" as="geometry" />
        </mxCell>
        <UserObject label="%name%&lt;br&gt;&lt;i style=&quot;color: gray;&quot;&gt;%position%&lt;/i&gt;" name="Nick Hackett" position="Secretary" email="chair@kingswoodrfc.co.uk" placeholders="1" id="LuRqBmNVZjdzien86iA9-20">
          <mxCell style="label;image=https://cdn2.iconfinder.com/data/icons/ios-7-icons/50/user_male4-512.png;whiteSpace=wrap;html=1;rounded=0;glass=0;treeMoving=1;treeFolding=1;" parent="dNxyNK7c78bLwvsdeMH5-11" vertex="1">
            <mxGeometry x="390" y="140" width="180" height="70" as="geometry" />
          </mxCell>
        </UserObject>
        <mxCell id="LuRqBmNVZjdzien86iA9-21" value="" style="edgeStyle=orthogonalEdgeStyle;rounded=0;orthogonalLoop=1;jettySize=auto;html=1;" parent="dNxyNK7c78bLwvsdeMH5-11" source="dNxyNK7c78bLwvsdeMH5-12" target="LuRqBmNVZjdzien86iA9-22" edge="1">
          <mxGeometry relative="1" as="geometry" />
        </mxCell>
        <UserObject label="%name%&lt;br&gt;&lt;i style=&quot;color: gray;&quot;&gt;%position%&lt;/i&gt;" name="Steeve Deary" position="Walkers Director of Rugby" email="chair@kingswoodrfc.co.uk" placeholders="1" id="LuRqBmNVZjdzien86iA9-22">
          <mxCell style="label;image=https://cdn2.iconfinder.com/data/icons/ios-7-icons/50/user_male4-512.png;whiteSpace=wrap;html=1;rounded=0;glass=0;treeMoving=1;treeFolding=1;" parent="dNxyNK7c78bLwvsdeMH5-11" vertex="1">
            <mxGeometry x="580" y="140" width="180" height="70" as="geometry" />
          </mxCell>
        </UserObject>
        <mxCell id="LuRqBmNVZjdzien86iA9-23" value="" style="edgeStyle=orthogonalEdgeStyle;rounded=0;orthogonalLoop=1;jettySize=auto;html=1;exitX=0.5;exitY=1;exitDx=0;exitDy=0;" parent="dNxyNK7c78bLwvsdeMH5-11" source="dNxyNK7c78bLwvsdeMH5-12" target="LuRqBmNVZjdzien86iA9-24" edge="1">
          <mxGeometry relative="1" as="geometry" />
        </mxCell>
        <UserObject label="%name%&lt;br&gt;&lt;i style=&quot;color: gray;&quot;&gt;%position%&lt;/i&gt;" name="Rich Shacklock" position="Seniors Director of Rugby" email="chair@kingswoodrfc.co.uk" placeholders="1" id="LuRqBmNVZjdzien86iA9-24">
          <mxCell style="label;image=https://cdn2.iconfinder.com/data/icons/ios-7-icons/50/user_male4-512.png;whiteSpace=wrap;html=1;rounded=0;glass=0;treeMoving=1;treeFolding=1;" parent="dNxyNK7c78bLwvsdeMH5-11" vertex="1">
            <mxGeometry x="770" y="140" width="180" height="70" as="geometry" />
          </mxCell>
        </UserObject>
        <mxCell id="LuRqBmNVZjdzien86iA9-25" value="" style="edgeStyle=orthogonalEdgeStyle;rounded=0;orthogonalLoop=1;jettySize=auto;html=1;exitX=0.5;exitY=1;exitDx=0;exitDy=0;" parent="dNxyNK7c78bLwvsdeMH5-11" source="dNxyNK7c78bLwvsdeMH5-12" target="LuRqBmNVZjdzien86iA9-26" edge="1">
          <mxGeometry relative="1" as="geometry" />
        </mxCell>
        <UserObject label="%name%&lt;br&gt;&lt;i style=&quot;color: gray;&quot;&gt;%position%&lt;/i&gt;" name="Tom Lovell" position="Minis &amp; Juniors Director of Rugby" email="chair@kingswoodrfc.co.uk" placeholders="1" id="LuRqBmNVZjdzien86iA9-26">
          <mxCell style="label;image=https://cdn2.iconfinder.com/data/icons/ios-7-icons/50/user_male4-512.png;whiteSpace=wrap;html=1;rounded=0;glass=0;treeMoving=1;treeFolding=1;" parent="dNxyNK7c78bLwvsdeMH5-11" vertex="1">
            <mxGeometry x="960" y="140" width="180" height="70" as="geometry" />
          </mxCell>
        </UserObject>
        <mxCell id="LuRqBmNVZjdzien86iA9-29" value="" style="rounded=0;orthogonalLoop=1;jettySize=auto;html=1;" parent="dNxyNK7c78bLwvsdeMH5-11" source="LuRqBmNVZjdzien86iA9-24" target="LuRqBmNVZjdzien86iA9-30" edge="1">
          <mxGeometry relative="1" as="geometry">
            <mxPoint x="100" y="180" as="sourcePoint" />
          </mxGeometry>
        </mxCell>
        <UserObject label="%name%&lt;br&gt;&lt;i style=&quot;color: gray;&quot;&gt;%position%&lt;/i&gt;" name="Tom Bowen-Hall" position="Head Coach" email="chair@kingswoodrfc.co.uk" placeholders="1" id="LuRqBmNVZjdzien86iA9-30">
          <mxCell style="label;image=https://cdn2.iconfinder.com/data/icons/ios-7-icons/50/user_male4-512.png;whiteSpace=wrap;html=1;rounded=0;glass=0;treeMoving=1;treeFolding=1;" parent="dNxyNK7c78bLwvsdeMH5-11" vertex="1">
            <mxGeometry x="770" y="250" width="180" height="70" as="geometry" />
          </mxCell>
        </UserObject>
        <mxCell id="LuRqBmNVZjdzien86iA9-31" value="" style="rounded=0;orthogonalLoop=1;jettySize=auto;html=1;" parent="dNxyNK7c78bLwvsdeMH5-11" source="LuRqBmNVZjdzien86iA9-26" target="LuRqBmNVZjdzien86iA9-32" edge="1">
          <mxGeometry relative="1" as="geometry">
            <mxPoint x="100" y="180" as="sourcePoint" />
          </mxGeometry>
        </mxCell>
        <UserObject label="%name%&lt;br&gt;&lt;i style=&quot;color: gray;&quot;&gt;%position%&lt;/i&gt;" name="Matthew Phillips" position="Minis Director of Rugby" email="chair@kingswoodrfc.co.uk" placeholders="1" id="LuRqBmNVZjdzien86iA9-32">
          <mxCell style="label;image=https://cdn2.iconfinder.com/data/icons/ios-7-icons/50/user_male4-512.png;whiteSpace=wrap;html=1;rounded=0;glass=0;treeMoving=1;treeFolding=1;" parent="dNxyNK7c78bLwvsdeMH5-11" vertex="1">
            <mxGeometry x="960" y="250" width="180" height="70" as="geometry" />
          </mxCell>
        </UserObject>
        <mxCell id="LuRqBmNVZjdzien86iA9-35" value="" style="edgeStyle=orthogonalEdgeStyle;rounded=0;orthogonalLoop=1;jettySize=auto;html=1;movable=1;resizable=1;rotatable=1;deletable=1;editable=1;locked=0;connectable=1;exitX=0.5;exitY=1;exitDx=0;exitDy=0;" parent="dNxyNK7c78bLwvsdeMH5-11" source="LuRqBmNVZjdzien86iA9-26" target="LuRqBmNVZjdzien86iA9-36" edge="1">
          <mxGeometry relative="1" as="geometry">
            <mxPoint x="100" y="180" as="sourcePoint" />
          </mxGeometry>
        </mxCell>
        <UserObject label="%name%&lt;br&gt;&lt;i style=&quot;color: gray;&quot;&gt;%position%&lt;/i&gt;" name="Dave Hodges" position="Juniors Director of Rugby" email="chair@kingswoodrfc.co.uk" placeholders="1" id="LuRqBmNVZjdzien86iA9-36">
          <mxCell style="label;image=https://cdn2.iconfinder.com/data/icons/ios-7-icons/50/user_male4-512.png;whiteSpace=wrap;html=1;rounded=0;glass=0;treeMoving=1;treeFolding=1;" parent="dNxyNK7c78bLwvsdeMH5-11" vertex="1">
            <mxGeometry x="1150" y="250" width="180" height="70" as="geometry" />
          </mxCell>
        </UserObject>
        <mxCell id="LuRqBmNVZjdzien86iA9-38" value="" style="edgeStyle=orthogonalEdgeStyle;rounded=0;orthogonalLoop=1;jettySize=auto;html=1;exitX=0.5;exitY=1;exitDx=0;exitDy=0;" parent="dNxyNK7c78bLwvsdeMH5-11" source="LuRqBmNVZjdzien86iA9-26" target="LuRqBmNVZjdzien86iA9-39" edge="1">
          <mxGeometry relative="1" as="geometry">
            <mxPoint x="100" y="180" as="sourcePoint" />
          </mxGeometry>
        </mxCell>
        <UserObject label="%name%&lt;br&gt;&lt;i style=&quot;color: gray;&quot;&gt;%position%&lt;/i&gt;" name="Liam O&#39;Laughlin" position="Athenas Director of Rugby" email="chair@kingswoodrfc.co.uk" placeholders="1" id="LuRqBmNVZjdzien86iA9-39">
          <mxCell style="label;image=https://cdn2.iconfinder.com/data/icons/ios-7-icons/50/user_male4-512.png;whiteSpace=wrap;html=1;rounded=0;glass=0;treeMoving=1;treeFolding=1;" parent="dNxyNK7c78bLwvsdeMH5-11" vertex="1">
            <mxGeometry x="1340" y="250" width="180" height="70" as="geometry" />
          </mxCell>
        </UserObject>
        <mxCell id="LuRqBmNVZjdzien86iA9-40" value="" style="edgeStyle=orthogonalEdgeStyle;rounded=0;orthogonalLoop=1;jettySize=auto;html=1;exitX=0.5;exitY=1;exitDx=0;exitDy=0;" parent="dNxyNK7c78bLwvsdeMH5-11" source="LuRqBmNVZjdzien86iA9-39" target="LuRqBmNVZjdzien86iA9-41" edge="1">
          <mxGeometry relative="1" as="geometry">
            <mxPoint x="1050" y="290" as="sourcePoint" />
          </mxGeometry>
        </mxCell>
        <UserObject label="%name%&lt;br&gt;&lt;i style=&quot;color: gray;&quot;&gt;%position%&lt;/i&gt;" name="Rachal Harding" position="Athenas Assistant Director of Rugby" email="chair@kingswoodrfc.co.uk" placeholders="1" id="LuRqBmNVZjdzien86iA9-41">
          <mxCell style="label;image=https://cdn2.iconfinder.com/data/icons/ios-7-icons/50/user_female4-256.png;whiteSpace=wrap;html=1;rounded=0;glass=0;treeMoving=1;treeFolding=1;" parent="dNxyNK7c78bLwvsdeMH5-11" vertex="1">
            <mxGeometry x="1340" y="360" width="180" height="70" as="geometry" />
          </mxCell>
        </UserObject>
        <mxCell id="LuRqBmNVZjdzien86iA9-42" value="" style="rounded=0;orthogonalLoop=1;jettySize=auto;html=1;" parent="dNxyNK7c78bLwvsdeMH5-11" source="LuRqBmNVZjdzien86iA9-30" target="LuRqBmNVZjdzien86iA9-43" edge="1">
          <mxGeometry relative="1" as="geometry">
            <mxPoint x="860" y="290" as="sourcePoint" />
          </mxGeometry>
        </mxCell>
        <UserObject label="%name%&lt;br&gt;&lt;i style=&quot;color: gray;&quot;&gt;%position%&lt;/i&gt;" name="Chris Finn" position="Assistant Coach" email="chair@kingswoodrfc.co.uk" placeholders="1" id="LuRqBmNVZjdzien86iA9-43">
          <mxCell style="label;image=https://cdn2.iconfinder.com/data/icons/ios-7-icons/50/user_male4-512.png;whiteSpace=wrap;html=1;rounded=0;glass=0;treeMoving=1;treeFolding=1;" parent="dNxyNK7c78bLwvsdeMH5-11" vertex="1">
            <mxGeometry x="770" y="360" width="180" height="70" as="geometry" />
          </mxCell>
        </UserObject>
        <mxCell id="LuRqBmNVZjdzien86iA9-44" value="" style="rounded=0;orthogonalLoop=1;jettySize=auto;html=1;edgeStyle=orthogonalEdgeStyle;exitX=0.5;exitY=1;exitDx=0;exitDy=0;" parent="dNxyNK7c78bLwvsdeMH5-11" source="LuRqBmNVZjdzien86iA9-30" target="LuRqBmNVZjdzien86iA9-45" edge="1">
          <mxGeometry relative="1" as="geometry">
            <mxPoint x="860" y="290" as="sourcePoint" />
          </mxGeometry>
        </mxCell>
        <UserObject label="%name%&lt;br&gt;&lt;i style=&quot;color: gray;&quot;&gt;%position%&lt;/i&gt;" name="Nick Coe" position="Head Coach" email="chair@kingswoodrfc.co.uk" placeholders="1" id="LuRqBmNVZjdzien86iA9-45">
          <mxCell style="label;image=https://cdn2.iconfinder.com/data/icons/ios-7-icons/50/user_male4-512.png;whiteSpace=wrap;html=1;rounded=0;glass=0;treeMoving=1;treeFolding=1;" parent="dNxyNK7c78bLwvsdeMH5-11" vertex="1">
            <mxGeometry x="570" y="360" width="180" height="70" as="geometry" />
          </mxCell>
        </UserObject>
        <mxCell id="NqxbmxRh1IsA5QDS3nw8-1" value="" style="edgeStyle=orthogonalEdgeStyle;rounded=0;orthogonalLoop=1;jettySize=auto;html=1;" edge="1" source="dNxyNK7c78bLwvsdeMH5-12" target="NqxbmxRh1IsA5QDS3nw8-2" parent="dNxyNK7c78bLwvsdeMH5-11">
          <mxGeometry relative="1" as="geometry" />
        </mxCell>
        <UserObject label="%name%&lt;br&gt;&lt;i style=&quot;color: gray;&quot;&gt;%position%&lt;/i&gt;" name="Lucy Webb" position="Clubhouse Manager" placeholders="1" id="NqxbmxRh1IsA5QDS3nw8-2">
          <mxCell style="label;image=https://cdn2.iconfinder.com/data/icons/ios-7-icons/50/user_male4-512.png;whiteSpace=wrap;html=1;rounded=0;glass=0;treeMoving=1;treeFolding=1;" vertex="1" parent="dNxyNK7c78bLwvsdeMH5-11">
            <mxGeometry x="390" y="30" width="180" height="70" as="geometry" />
          </mxCell>
        </UserObject>
      </root>
    </mxGraphModel>
  </diagram>
</mxfile>
